<svg xmlns="http://www.w3.org/2000/svg" width="24" height="24" fill="none" viewBox="0 0 24 24">
  <g class="Name=image">
    <g class="Shape">
      <g class="Normal">
        <path fill="#111" fill-rule="evenodd" d="M6.35 8.749a2.4 2.4 0 1 1 4.8 0 2.4 2.4 0 0 1-4.8 0Zm2.4-.6a.6.6 0 1 0 0 1.2.6.6 0 0 0 0-1.2Z" clip-rule="evenodd"/>
        <path fill="#111" fill-rule="evenodd" d="M8.262 2.6c-.808 0-1.469 0-2.006.043-.556.046-1.058.143-1.527.382a3.9 3.9 0 0 0-1.704 1.704c-.239.469-.336.97-.381 1.527C2.6 6.793 2.6 7.454 2.6 8.262v7.475c0 .808 0 1.47.044 2.006.045.556.142 1.058.381 1.527a3.9 3.9 0 0 0 1.704 1.704c.47.24.971.336 1.527.382.537.043 1.198.043 2.006.043h7.476c.808 0 1.468 0 2.006-.043.555-.046 1.058-.143 1.526-.382a3.9 3.9 0 0 0 1.705-1.704c.239-.469.336-.97.381-1.527.044-.537.044-1.198.044-2.006V8.262c0-.808 0-1.47-.044-2.006-.045-.556-.142-1.058-.381-1.527a3.9 3.9 0 0 0-1.705-1.704c-.468-.24-.97-.336-1.526-.382-.538-.044-1.198-.044-2.006-.044H8.262ZM5.547 4.627c.172-.088.411-.154.856-.19.455-.038 1.042-.039 1.897-.039h7.4c.855 0 1.442.001 1.897.038.445.037.683.103.856.191a2.1 2.1 0 0 1 .918.918c.088.173.155.412.191.856.037.455.038 1.043.038 1.897v2.528l-.226-.226a17.852 17.852 0 0 0-.977-.934c-.298-.253-.615-.471-1.001-.597a2.9 2.9 0 0 0-1.792 0c-.387.126-.704.344-1.001.597-.284.24-.603.56-.977.934l-8.493 8.493a2.1 2.1 0 0 1-.504-.641c-.088-.173-.155-.412-.191-.856-.037-.456-.038-1.043-.038-1.898V8.3c0-.854 0-1.442.038-1.897.036-.444.103-.683.19-.856a2.1 2.1 0 0 1 .919-.918Zm1.631 14.966c.316.005.684.005 1.122.005h7.4c.855 0 1.442 0 1.897-.037.445-.037.683-.103.856-.191a2.1 2.1 0 0 0 .918-.918c.088-.173.155-.412.191-.856.037-.456.038-1.043.038-1.898v-2.326l-1.474-1.474a17.68 17.68 0 0 0-.894-.86c-.213-.18-.322-.234-.392-.257a1.101 1.101 0 0 0-.68 0c-.07.023-.18.077-.392.257-.221.188-.488.454-.895.86l-7.695 7.695Z" clip-rule="evenodd"/>
      </g>
    </g>
  </g>
</svg>
