<svg xmlns="http://www.w3.org/2000/svg" width="24" height="24" fill="none" viewBox="0 0 24 24">
  <g class="Name=person, Fill=False">
    <g class="Shape">
      <path fill="#111" fill-rule="evenodd" d="M12 2.601a4.9 4.9 0 1 0 0 9.8 4.9 4.9 0 0 0 0-9.8Zm-3.1 4.9a3.1 3.1 0 1 1 6.2 0 3.1 3.1 0 0 1-6.2 0ZM12 13.6c-2.312 0-4.47.452-6.084 1.322-1.613.868-2.816 2.244-2.816 4.077v.328c0 .187 0 .377.013.54.015.18.05.404.167.632.158.31.41.563.721.722.228.116.452.151.633.166.163.013.353.013.54.013h13.653c.186 0 .376 0 .539-.014.18-.014.405-.05.633-.166.31-.159.563-.411.721-.721.116-.229.152-.453.167-.634.013-.162.013-.352.013-.539V19c0-1.833-1.203-3.209-2.816-4.077-1.615-.87-3.772-1.323-6.084-1.323ZM4.9 19c0-.928.588-1.803 1.87-2.494C8.051 15.816 9.894 15.4 12 15.4c2.106 0 3.949.417 5.23 1.107 1.282.69 1.87 1.566 1.87 2.493l-.002.599H4.902L4.9 19Z" class="Normal" clip-rule="evenodd"/>
    </g>
  </g>
</svg>
