<svg xmlns="http://www.w3.org/2000/svg" width="24" height="24" fill="none" viewBox="0 0 24 24">
  <g class="Name=pin, Fill=False">
    <g class="Shape">
      <path fill="#111" fill-rule="evenodd" d="M8.947 2.602c-.416 0-.788 0-1.087.027-.305.028-.681.094-1.011.332a1.9 1.9 0 0 0-.777 1.328c-.045.404.082.764.207 1.043.123.275.305.6.51.962L7.6 7.737v2.948l-1.749 2.186c-.31.389-.582.728-.77 1.014-.186.28-.4.66-.4 1.114a1.9 1.9 0 0 0 .715 1.487c.354.283.784.354 1.119.384.341.031.775.031 1.273.031H11.1v5.1a.9.9 0 0 0 1.8 0v-5.1h3.312c.498 0 .932 0 1.274-.031.334-.03.764-.101 1.119-.384a1.9 1.9 0 0 0 .715-1.487c-.001-.454-.214-.834-.4-1.114a15.43 15.43 0 0 0-.771-1.014L16.4 10.685V7.737l.812-1.443c.204-.363.387-.687.51-.962.124-.279.252-.639.206-1.043a1.9 1.9 0 0 0-.776-1.328c-.33-.238-.707-.304-1.011-.332-.3-.027-.672-.027-1.088-.027H8.947ZM7.873 4.55a.092.092 0 0 1-.014-.05c0-.014.005-.032.015-.05a.106.106 0 0 1 .036-.037.092.092 0 0 1 .05-.012h8.08a.09.09 0 0 1 .05.012.106.106 0 0 1 .051.087.093.093 0 0 1-.014.05l-1.411 2.508a.9.9 0 0 0-.116.442V11a.9.9 0 0 0 .197.562l2.7 3.375c.02.024.023.04.024.05a.11.11 0 0 1-.011.056.108.108 0 0 1-.037.044.093.093 0 0 1-.053.013H6.58a.093.093 0 0 1-.053-.013.108.108 0 0 1-.036-.044.108.108 0 0 1-.012-.055.09.09 0 0 1 .024-.05l2.7-3.376A.9.9 0 0 0 9.4 11V7.5a.9.9 0 0 0-.115-.442L7.873 4.551Z" class="Normal" clip-rule="evenodd"/>
    </g>
  </g>
</svg>
