<svg xmlns="http://www.w3.org/2000/svg" width="24" height="24" fill="none" viewBox="0 0 24 24">
  <g class="Name=question">
    <g class="Shape">
      <path fill="#111" d="M11.924 15.521c-.583 0-1.065-.477-1.001-1.057.485-4.402 4.007-4.093 4.007-6.739 0-1.573-1.245-2.583-3.006-2.583-1.507 0-2.53.726-2.876 2.007-.152.563-.603 1.046-1.186 1.046-.584 0-1.069-.477-.974-1.053.403-2.446 2.247-3.972 5.036-3.972 2.935 0 5.12 1.69 5.12 4.555 0 3.564-3.397 3.348-3.979 6.742-.098.575-.557 1.054-1.14 1.054Zm-1.456 3.71c0 .845.61 1.456 1.456 1.456s1.456-.61 1.456-1.456c0-.845-.61-1.456-1.456-1.456-.845 0-1.456.61-1.456 1.456Z" class="Normal"/>
    </g>
  </g>
</svg>
